# xmcd
#
# Track frame offsets:
#	150
#	7590
#	60691
#	115845
#	166570
#	191504
#	212755
#	235898
#	271445
#	293229
#
# Disc length: 4631 seconds
#
# Revision: 0
# Processed by: cddbd v1.5.2PL0 Copyright (c) Steve Scherf et al.
# Submitted via: audiograbber 1.83.01
#
DISCID=8012150a
DTITLE=Grateful Dead - 94-03-23 Nassau Veterans Memorial Coliseum, Uniondale NY
DYEAR=1900
DGENRE=
TTITLE0=Crowd and Tuning
TTITLE1=Shakedown Street
TTITLE2=Little Red Rooster
TTITLE3=Row Jimmy
TTITLE4=El Paso
TTITLE5=Might As Well
TTITLE6=Promised Land
TTITLE7=China Cat Sunflower
TTITLE8=I Know You Rider
TTITLE9=Men Smart, Women Are Smarter
EXTD=
EXTT0=
EXTT1=
EXTT2=
EXTT3=
EXTT4=
EXTT5=
EXTT6=
EXTT7=
EXTT8=
EXTT9=
PLAYORDER=
